<?xml version="1.0" standalone="no"?>
<!DOCTYPE svg PUBLIC "-//W3C//DTD SVG 20010904//EN"
 "http://www.w3.org/TR/2001/REC-SVG-20010904/DTD/svg10.dtd">
<svg version="1.0" xmlns="http://www.w3.org/2000/svg"
 width="70.000000pt" height="70.000000pt" viewBox="0 0 70.000000 70.000000"
 preserveAspectRatio="xMidYMid meet">
<metadata>
Created by potrace 1.11, written by Peter Selinger 2001-2013
</metadata>
<g transform="translate(0.000000,70.000000) scale(0.100000,-0.100000)"
fill="#000000" stroke="none">
<path d="M243 682 c-70 -25 -123 -62 -165 -114 -36 -44 -78 -148 -78 -193 l0
-25 143 0 142 0 -58 -24 c-99 -41 -156 -95 -197 -189 -12 -26 -24 -68 -27 -92
l-5 -45 352 0 353 0 -7 43 c-23 143 -113 251 -245 291 -45 14 -42 15 103 15
l148 1 -5 46 c-8 61 -47 142 -92 193 -84 92 -246 134 -362 93z"/>
</g>
</svg>
